<?xml version="1.0" encoding="UTF-8" standalone="no"?>
<svg
   version="1.0"
   width="1027.000000pt"
   height="1280.000000pt"
   viewBox="0 0 1027.000000 1280.000000"
   preserveAspectRatio="xMidYMid meet"
   id="svg16003"
   sodipodi:docname="147903.svg"
   inkscape:version="1.2.2 (1:1.2.2+202212051552+b0a8486541)"
   xmlns:inkscape="http://www.inkscape.org/namespaces/inkscape"
   xmlns:sodipodi="http://sodipodi.sourceforge.net/DTD/sodipodi-0.dtd"
   xmlns="http://www.w3.org/2000/svg"
   xmlns:svg="http://www.w3.org/2000/svg">
  <defs
     id="defs16007">
    <filter
       inkscape:collect="always"
       style="color-interpolation-filters:sRGB"
       id="filter17467"
       x="-0.042509894"
       y="-0.034099306"
       width="1.0850326"
       height="1.068198">
      <feGaussianBlur
         inkscape:collect="always"
         stdDeviation="129.68025"
         id="feGaussianBlur17469" />
    </filter>
    <filter
       inkscape:collect="always"
       style="color-interpolation-filters:sRGB"
       id="filter17471"
       x="-0.019338752"
       y="-0.015504098"
       width="1.0386712"
       height="1.0310136">
      <feGaussianBlur
         inkscape:collect="always"
         stdDeviation="57.635668"
         id="feGaussianBlur17473" />
    </filter>
    <filter
       inkscape:collect="always"
       style="color-interpolation-filters:sRGB"
       id="filter17475"
       x="-0.003654228"
       y="-0.0029279244"
       width="1.0073058"
       height="1.0058581">
      <feGaussianBlur
         inkscape:collect="always"
         stdDeviation="5.1872101"
         id="feGaussianBlur17477" />
    </filter>
  </defs>
  <sodipodi:namedview
     id="namedview16005"
     pagecolor="#505050"
     bordercolor="#eeeeee"
     borderopacity="1"
     inkscape:showpageshadow="0"
     inkscape:pageopacity="0"
     inkscape:pagecheckerboard="0"
     inkscape:deskcolor="#505050"
     inkscape:document-units="pt"
     showgrid="false"
     showborder="true"
     inkscape:zoom="0.2765625"
     inkscape:cx="-771.9774"
     inkscape:cy="1195.0282"
     inkscape:window-width="2560"
     inkscape:window-height="1372"
     inkscape:window-x="1920"
     inkscape:window-y="31"
     inkscape:window-maximized="1"
     inkscape:current-layer="svg16003" />
  <metadata
     id="metadata15997">
Created by potrace 1.15, written by Peter Selinger 2001-2017
</metadata>
  <g
     id="g17487"
     transform="matrix(0.91026122,0,0,0.93640174,56.33122,3910.1223)">
    <g
       transform="matrix(0.1,0,0,-0.1,-0.00656344,-2853.902)"
       fill="#000000"
       stroke="none"
       id="g16001"
       style="mix-blend-mode:normal;fill:#ff0066;stroke:#ff0066;stroke-width:250;stroke-linecap:round;stroke-linejoin:bevel;stroke-dasharray:none;stroke-opacity:1;filter:url(#filter17467)">
      <path
         d="m 572,12775 c -294,-79 -454,-211 -516,-425 -9,-30 -25,-106 -36,-169 L -1,12067 20,11061 C 31,10508 45,9837 50,9570 62,8991 76,8280 90,7590 c 6,-278 15,-723 20,-990 5,-267 14,-712 20,-990 6,-278 15,-727 20,-997 12,-616 27,-1329 40,-1978 6,-275 14,-714 20,-975 5,-261 12,-628 16,-815 4,-200 12,-371 19,-415 C 280,224 384,91 555,29 l 60,-22 1745,3 c 960,1 2924,6 4365,10 2289,8 2628,11 2685,24 170,40 279,95 375,191 121,120 179,261 196,475 6,69 32,1041 60,2160 27,1119 54,2206 59,2415 5,209 14,565 20,790 23,909 31,1227 40,1600 123,4813 118,4491 64,4654 -48,145 -124,235 -246,296 -146,71 -49,68 -2408,95 -514,6 -1304,15 -1755,20 -1213,15 -3777,44 -4695,55 l -455,5 z m 2153,-255 c 435,-5 1193,-14 1685,-20 492,-6 1257,-15 1700,-20 443,-5 1246,-14 1785,-20 1526,-17 1859,-25 1925,-45 113,-35 177,-141 187,-310 3,-49 0,-290 -6,-535 -37,-1425 -71,-2816 -71,-2889 v -84 l -557,7 c -307,3 -1006,11 -1553,16 -547,6 -1422,15 -1945,20 -522,5 -1447,14 -2055,20 -608,6 -1188,12 -1290,13 l -185,2 v 575 575 l 330,-3 c 601,-5 2326,-22 3320,-32 539,-5 1430,-14 1980,-20 550,-5 1217,-12 1483,-16 l 482,-7 v 65 65 l -592,7 c -658,7 -1940,20 -3533,36 -577,6 -1441,15 -1920,20 -478,6 -1022,10 -1208,10 h -338 l 2,1278 2,1277 -60,3 -60,3 -6,-503 c -4,-277 -7,-851 -7,-1275 v -773 h -240 -239 l -12,42 c -33,124 -123,234 -238,290 -213,106 -462,-19 -546,-272 l -17,-51 -304,3 -304,3 v -61 -61 l 182,-6 c 99,-4 237,-7 304,-7 h 123 l 12,-42 c 52,-195 249,-344 429,-324 83,9 188,65 249,132 52,56 111,165 111,203 0,21 2,21 247,21 h 246 l -6,-257 c -4,-141 -7,-400 -7,-576 v -319 l -872,6 c -480,4 -905,9 -944,12 l -71,5 -7,382 c -3,210 -11,582 -16,827 -26,1238 -32,1543 -33,1860 -2,300 0,356 16,430 10,47 26,103 36,125 37,83 141,153 293,195 71,20 90,20 698,15 344,-3 981,-10 1415,-15 z m -1182,-3966 667,-6 v -585 -584 l -487,6 c -269,3 -686,8 -929,11 l -441,6 -6,232 c -4,127 -10,390 -13,585 l -7,353 274,-6 c 151,-3 574,-9 942,-12 z m 2462,-24 c 589,-6 1502,-15 2030,-20 528,-5 1417,-14 1975,-20 558,-5 1217,-12 1464,-16 l 449,-6 -8,-307 c -4,-168 -10,-428 -14,-578 -3,-149 -8,-273 -11,-276 -3,-2 -354,0 -780,4 -719,7 -1212,12 -3865,39 -1994,20 -2909,31 -2909,33 -1,1 0,264 2,585 l 3,583 297,-6 c 163,-3 779,-10 1367,-15 z m -2046,-1276 254,-6 -6,-187 c -4,-102 -7,-356 -7,-563 v -378 h -240 -240 v 33 c 0,18 -7,59 -15,92 -56,212 -255,357 -450,325 -163,-27 -316,-187 -345,-361 -5,-35 -10,-68 -10,-73 0,-10 -507,-2 -518,8 -4,4 -10,175 -14,379 -3,205 -9,457 -11,561 l -5,188 676,-6 c 372,-3 791,-9 931,-12 z m 2526,-24 c 550,-6 1403,-15 1895,-20 492,-5 1482,-15 2200,-21 718,-7 1306,-13 1308,-14 5,-4 -26,-1126 -31,-1131 -2,-2 -424,0 -938,6 -514,5 -1397,14 -1964,20 -566,6 -1446,15 -1955,20 -509,5 -1249,12 -1645,15 -396,3 -789,8 -872,11 l -153,6 v 566 565 l 578,-7 c 317,-3 1027,-11 1577,-16 z M 758,6003 l 173,-6 31,-58 c 37,-70 115,-147 189,-185 49,-27 63,-29 159,-29 100,0 108,2 167,34 76,41 145,108 185,178 l 30,53 h 254 254 l -2,-631 -3,-632 -485,3 c -267,2 -669,6 -895,9 l -410,6 -6,285 c -4,157 -10,441 -14,633 l -7,347 h 104 c 56,0 181,-3 276,-7 z m 3372,-33 c 575,-6 1468,-15 1985,-20 517,-5 1444,-14 2060,-20 616,-5 1248,-13 1404,-16 l 283,-6 -6,-147 c -3,-80 -11,-362 -17,-626 -6,-264 -13,-482 -15,-484 -4,-4 -1064,6 -3264,29 -487,5 -1402,14 -2035,21 -632,6 -1386,14 -1675,17 l -525,7 v 118 c 0,64 1,349 3,633 l 2,516 378,-6 c 207,-4 847,-11 1422,-16 z M 2190,4595 c 3,-2 4,-294 2,-650 l -2,-646 -748,6 c -411,3 -806,8 -878,11 l -131,6 -6,306 c -4,169 -10,459 -14,646 l -6,339 889,-8 c 489,-4 891,-9 894,-10 z m 2595,-25 c 512,-5 1376,-14 1920,-20 2613,-26 3110,-32 3114,-36 5,-5 -16,-989 -25,-1172 l -6,-123 -337,6 c -185,3 -822,10 -1416,15 -594,6 -1487,15 -1985,20 -498,5 -1436,14 -2085,20 -649,6 -1285,13 -1412,16 l -233,6 v 646 645 l 768,-7 c 422,-3 1186,-11 1697,-16 z m -3062,-1396 467,-6 v -448 c 0,-246 -3,-529 -7,-628 l -6,-182 h -252 -252 l -5,65 c -12,140 -112,281 -247,348 -59,29 -74,32 -156,32 -82,0 -97,-3 -155,-32 -130,-64 -235,-210 -247,-342 l -6,-61 H 660 463 l -6,238 c -4,130 -10,416 -13,635 l -7,398 409,-5 c 225,-4 619,-9 877,-12 z m 2502,-24 c 567,-6 1444,-15 1950,-20 506,-5 1458,-14 2115,-20 657,-6 1264,-13 1348,-16 l 154,-6 -6,-122 c -3,-66 -11,-348 -17,-626 -7,-278 -13,-507 -15,-508 -1,-2 -467,1 -1036,7 -1196,13 -2457,26 -4013,42 -605,6 -1390,14 -1745,17 l -645,7 -3,70 c -2,39 -1,324 3,634 l 7,563 437,-6 c 240,-4 900,-11 1466,-16 z M 904,1741 c 32,-62 115,-152 169,-184 162,-95 340,-66 475,77 28,30 61,75 74,100 l 22,46 h 268 268 l -2,-757 -3,-758 -755,-3 -755,-2 -52,26 c -46,22 -56,33 -84,90 l -32,65 -9,232 c -9,254 -26,1109 -22,1117 1,3 95,4 208,2 l 206,-3 z m 2971,19 c 616,-6 1532,-15 2035,-20 503,-5 1410,-14 2015,-20 605,-5 1264,-13 1464,-16 l 363,-6 -7,-327 C 9734,821 9724,654 9701,580 9652,422 9553,341 9355,297 9293,283 8920,281 5880,275 4007,272 2438,267 2393,264 l -83,-5 v 759 760 l 223,-4 c 122,-2 726,-9 1342,-14 z"
         id="path15999"
         style="fill:#ff0066;stroke:#ff0066;stroke-width:250;stroke-linecap:round;stroke-linejoin:bevel;stroke-dasharray:none;stroke-opacity:1" />
    </g>
    <g
       transform="matrix(0.1,0,0,-0.1,0.00320527,-2853.8981)"
       fill="#000000"
       stroke="none"
       id="g16011"
       style="fill:#ff2a7f;stroke:#ff2a7f;stroke-width:120;stroke-linecap:round;stroke-linejoin:bevel;stroke-dasharray:none;stroke-opacity:1;filter:url(#filter17471)">
      <path
         d="m 572,12775 c -294,-79 -454,-211 -516,-425 -9,-30 -25,-106 -36,-169 L -1,12067 20,11061 C 31,10508 45,9837 50,9570 62,8991 76,8280 90,7590 c 6,-278 15,-723 20,-990 5,-267 14,-712 20,-990 6,-278 15,-727 20,-997 12,-616 27,-1329 40,-1978 6,-275 14,-714 20,-975 5,-261 12,-628 16,-815 4,-200 12,-371 19,-415 C 280,224 384,91 555,29 l 60,-22 1745,3 c 960,1 2924,6 4365,10 2289,8 2628,11 2685,24 170,40 279,95 375,191 121,120 179,261 196,475 6,69 32,1041 60,2160 27,1119 54,2206 59,2415 5,209 14,565 20,790 23,909 31,1227 40,1600 123,4813 118,4491 64,4654 -48,145 -124,235 -246,296 -146,71 -49,68 -2408,95 -514,6 -1304,15 -1755,20 -1213,15 -3777,44 -4695,55 l -455,5 z m 2153,-255 c 435,-5 1193,-14 1685,-20 492,-6 1257,-15 1700,-20 443,-5 1246,-14 1785,-20 1526,-17 1859,-25 1925,-45 113,-35 177,-141 187,-310 3,-49 0,-290 -6,-535 -37,-1425 -71,-2816 -71,-2889 v -84 l -557,7 c -307,3 -1006,11 -1553,16 -547,6 -1422,15 -1945,20 -522,5 -1447,14 -2055,20 -608,6 -1188,12 -1290,13 l -185,2 v 575 575 l 330,-3 c 601,-5 2326,-22 3320,-32 539,-5 1430,-14 1980,-20 550,-5 1217,-12 1483,-16 l 482,-7 v 65 65 l -592,7 c -658,7 -1940,20 -3533,36 -577,6 -1441,15 -1920,20 -478,6 -1022,10 -1208,10 h -338 l 2,1278 2,1277 -60,3 -60,3 -6,-503 c -4,-277 -7,-851 -7,-1275 v -773 h -240 -239 l -12,42 c -33,124 -123,234 -238,290 -213,106 -462,-19 -546,-272 l -17,-51 -304,3 -304,3 v -61 -61 l 182,-6 c 99,-4 237,-7 304,-7 h 123 l 12,-42 c 52,-195 249,-344 429,-324 83,9 188,65 249,132 52,56 111,165 111,203 0,21 2,21 247,21 h 246 l -6,-257 c -4,-141 -7,-400 -7,-576 v -319 l -872,6 c -480,4 -905,9 -944,12 l -71,5 -7,382 c -3,210 -11,582 -16,827 -26,1238 -32,1543 -33,1860 -2,300 0,356 16,430 10,47 26,103 36,125 37,83 141,153 293,195 71,20 90,20 698,15 344,-3 981,-10 1415,-15 z m -1182,-3966 667,-6 v -585 -584 l -487,6 c -269,3 -686,8 -929,11 l -441,6 -6,232 c -4,127 -10,390 -13,585 l -7,353 274,-6 c 151,-3 574,-9 942,-12 z m 2462,-24 c 589,-6 1502,-15 2030,-20 528,-5 1417,-14 1975,-20 558,-5 1217,-12 1464,-16 l 449,-6 -8,-307 c -4,-168 -10,-428 -14,-578 -3,-149 -8,-273 -11,-276 -3,-2 -354,0 -780,4 -719,7 -1212,12 -3865,39 -1994,20 -2909,31 -2909,33 -1,1 0,264 2,585 l 3,583 297,-6 c 163,-3 779,-10 1367,-15 z m -2046,-1276 254,-6 -6,-187 c -4,-102 -7,-356 -7,-563 v -378 h -240 -240 v 33 c 0,18 -7,59 -15,92 -56,212 -255,357 -450,325 -163,-27 -316,-187 -345,-361 -5,-35 -10,-68 -10,-73 0,-10 -507,-2 -518,8 -4,4 -10,175 -14,379 -3,205 -9,457 -11,561 l -5,188 676,-6 c 372,-3 791,-9 931,-12 z m 2526,-24 c 550,-6 1403,-15 1895,-20 492,-5 1482,-15 2200,-21 718,-7 1306,-13 1308,-14 5,-4 -26,-1126 -31,-1131 -2,-2 -424,0 -938,6 -514,5 -1397,14 -1964,20 -566,6 -1446,15 -1955,20 -509,5 -1249,12 -1645,15 -396,3 -789,8 -872,11 l -153,6 v 566 565 l 578,-7 c 317,-3 1027,-11 1577,-16 z M 758,6003 l 173,-6 31,-58 c 37,-70 115,-147 189,-185 49,-27 63,-29 159,-29 100,0 108,2 167,34 76,41 145,108 185,178 l 30,53 h 254 254 l -2,-631 -3,-632 -485,3 c -267,2 -669,6 -895,9 l -410,6 -6,285 c -4,157 -10,441 -14,633 l -7,347 h 104 c 56,0 181,-3 276,-7 z m 3372,-33 c 575,-6 1468,-15 1985,-20 517,-5 1444,-14 2060,-20 616,-5 1248,-13 1404,-16 l 283,-6 -6,-147 c -3,-80 -11,-362 -17,-626 -6,-264 -13,-482 -15,-484 -4,-4 -1064,6 -3264,29 -487,5 -1402,14 -2035,21 -632,6 -1386,14 -1675,17 l -525,7 v 118 c 0,64 1,349 3,633 l 2,516 378,-6 c 207,-4 847,-11 1422,-16 z M 2190,4595 c 3,-2 4,-294 2,-650 l -2,-646 -748,6 c -411,3 -806,8 -878,11 l -131,6 -6,306 c -4,169 -10,459 -14,646 l -6,339 889,-8 c 489,-4 891,-9 894,-10 z m 2595,-25 c 512,-5 1376,-14 1920,-20 2613,-26 3110,-32 3114,-36 5,-5 -16,-989 -25,-1172 l -6,-123 -337,6 c -185,3 -822,10 -1416,15 -594,6 -1487,15 -1985,20 -498,5 -1436,14 -2085,20 -649,6 -1285,13 -1412,16 l -233,6 v 646 645 l 768,-7 c 422,-3 1186,-11 1697,-16 z m -3062,-1396 467,-6 v -448 c 0,-246 -3,-529 -7,-628 l -6,-182 h -252 -252 l -5,65 c -12,140 -112,281 -247,348 -59,29 -74,32 -156,32 -82,0 -97,-3 -155,-32 -130,-64 -235,-210 -247,-342 l -6,-61 H 660 463 l -6,238 c -4,130 -10,416 -13,635 l -7,398 409,-5 c 225,-4 619,-9 877,-12 z m 2502,-24 c 567,-6 1444,-15 1950,-20 506,-5 1458,-14 2115,-20 657,-6 1264,-13 1348,-16 l 154,-6 -6,-122 c -3,-66 -11,-348 -17,-626 -7,-278 -13,-507 -15,-508 -1,-2 -467,1 -1036,7 -1196,13 -2457,26 -4013,42 -605,6 -1390,14 -1745,17 l -645,7 -3,70 c -2,39 -1,324 3,634 l 7,563 437,-6 c 240,-4 900,-11 1466,-16 z M 904,1741 c 32,-62 115,-152 169,-184 162,-95 340,-66 475,77 28,30 61,75 74,100 l 22,46 h 268 268 l -2,-757 -3,-758 -755,-3 -755,-2 -52,26 c -46,22 -56,33 -84,90 l -32,65 -9,232 c -9,254 -26,1109 -22,1117 1,3 95,4 208,2 l 206,-3 z m 2971,19 c 616,-6 1532,-15 2035,-20 503,-5 1410,-14 2015,-20 605,-5 1264,-13 1464,-16 l 363,-6 -7,-327 C 9734,821 9724,654 9701,580 9652,422 9553,341 9355,297 9293,283 8920,281 5880,275 4007,272 2438,267 2393,264 l -83,-5 v 759 760 l 223,-4 c 122,-2 726,-9 1342,-14 z"
         id="path16009"
         style="fill:#ff2a7f;stroke:#ff2a7f;stroke-width:120;stroke-linecap:round;stroke-linejoin:bevel;stroke-dasharray:none;stroke-opacity:1" />
    </g>
    <g
       transform="matrix(0.1,0,0,-0.1,0.00139287,-2853.9002)"
       fill="#000000"
       stroke="none"
       id="g16015"
       style="fill:#ff80b2;stroke:#ff80b2;stroke-width:50;stroke-linecap:round;stroke-linejoin:bevel;stroke-dasharray:none;stroke-opacity:1;filter:url(#filter17475)">
      <path
         d="m 572,12775 c -294,-79 -454,-211 -516,-425 -9,-30 -25,-106 -36,-169 L -1,12067 20,11061 C 31,10508 45,9837 50,9570 62,8991 76,8280 90,7590 c 6,-278 15,-723 20,-990 5,-267 14,-712 20,-990 6,-278 15,-727 20,-997 12,-616 27,-1329 40,-1978 6,-275 14,-714 20,-975 5,-261 12,-628 16,-815 4,-200 12,-371 19,-415 C 280,224 384,91 555,29 l 60,-22 1745,3 c 960,1 2924,6 4365,10 2289,8 2628,11 2685,24 170,40 279,95 375,191 121,120 179,261 196,475 6,69 32,1041 60,2160 27,1119 54,2206 59,2415 5,209 14,565 20,790 23,909 31,1227 40,1600 123,4813 118,4491 64,4654 -48,145 -124,235 -246,296 -146,71 -49,68 -2408,95 -514,6 -1304,15 -1755,20 -1213,15 -3777,44 -4695,55 l -455,5 z m 2153,-255 c 435,-5 1193,-14 1685,-20 492,-6 1257,-15 1700,-20 443,-5 1246,-14 1785,-20 1526,-17 1859,-25 1925,-45 113,-35 177,-141 187,-310 3,-49 0,-290 -6,-535 -37,-1425 -71,-2816 -71,-2889 v -84 l -557,7 c -307,3 -1006,11 -1553,16 -547,6 -1422,15 -1945,20 -522,5 -1447,14 -2055,20 -608,6 -1188,12 -1290,13 l -185,2 v 575 575 l 330,-3 c 601,-5 2326,-22 3320,-32 539,-5 1430,-14 1980,-20 550,-5 1217,-12 1483,-16 l 482,-7 v 65 65 l -592,7 c -658,7 -1940,20 -3533,36 -577,6 -1441,15 -1920,20 -478,6 -1022,10 -1208,10 h -338 l 2,1278 2,1277 -60,3 -60,3 -6,-503 c -4,-277 -7,-851 -7,-1275 v -773 h -240 -239 l -12,42 c -33,124 -123,234 -238,290 -213,106 -462,-19 -546,-272 l -17,-51 -304,3 -304,3 v -61 -61 l 182,-6 c 99,-4 237,-7 304,-7 h 123 l 12,-42 c 52,-195 249,-344 429,-324 83,9 188,65 249,132 52,56 111,165 111,203 0,21 2,21 247,21 h 246 l -6,-257 c -4,-141 -7,-400 -7,-576 v -319 l -872,6 c -480,4 -905,9 -944,12 l -71,5 -7,382 c -3,210 -11,582 -16,827 -26,1238 -32,1543 -33,1860 -2,300 0,356 16,430 10,47 26,103 36,125 37,83 141,153 293,195 71,20 90,20 698,15 344,-3 981,-10 1415,-15 z m -1182,-3966 667,-6 v -585 -584 l -487,6 c -269,3 -686,8 -929,11 l -441,6 -6,232 c -4,127 -10,390 -13,585 l -7,353 274,-6 c 151,-3 574,-9 942,-12 z m 2462,-24 c 589,-6 1502,-15 2030,-20 528,-5 1417,-14 1975,-20 558,-5 1217,-12 1464,-16 l 449,-6 -8,-307 c -4,-168 -10,-428 -14,-578 -3,-149 -8,-273 -11,-276 -3,-2 -354,0 -780,4 -719,7 -1212,12 -3865,39 -1994,20 -2909,31 -2909,33 -1,1 0,264 2,585 l 3,583 297,-6 c 163,-3 779,-10 1367,-15 z m -2046,-1276 254,-6 -6,-187 c -4,-102 -7,-356 -7,-563 v -378 h -240 -240 v 33 c 0,18 -7,59 -15,92 -56,212 -255,357 -450,325 -163,-27 -316,-187 -345,-361 -5,-35 -10,-68 -10,-73 0,-10 -507,-2 -518,8 -4,4 -10,175 -14,379 -3,205 -9,457 -11,561 l -5,188 676,-6 c 372,-3 791,-9 931,-12 z m 2526,-24 c 550,-6 1403,-15 1895,-20 492,-5 1482,-15 2200,-21 718,-7 1306,-13 1308,-14 5,-4 -26,-1126 -31,-1131 -2,-2 -424,0 -938,6 -514,5 -1397,14 -1964,20 -566,6 -1446,15 -1955,20 -509,5 -1249,12 -1645,15 -396,3 -789,8 -872,11 l -153,6 v 566 565 l 578,-7 c 317,-3 1027,-11 1577,-16 z M 758,6003 l 173,-6 31,-58 c 37,-70 115,-147 189,-185 49,-27 63,-29 159,-29 100,0 108,2 167,34 76,41 145,108 185,178 l 30,53 h 254 254 l -2,-631 -3,-632 -485,3 c -267,2 -669,6 -895,9 l -410,6 -6,285 c -4,157 -10,441 -14,633 l -7,347 h 104 c 56,0 181,-3 276,-7 z m 3372,-33 c 575,-6 1468,-15 1985,-20 517,-5 1444,-14 2060,-20 616,-5 1248,-13 1404,-16 l 283,-6 -6,-147 c -3,-80 -11,-362 -17,-626 -6,-264 -13,-482 -15,-484 -4,-4 -1064,6 -3264,29 -487,5 -1402,14 -2035,21 -632,6 -1386,14 -1675,17 l -525,7 v 118 c 0,64 1,349 3,633 l 2,516 378,-6 c 207,-4 847,-11 1422,-16 z M 2190,4595 c 3,-2 4,-294 2,-650 l -2,-646 -748,6 c -411,3 -806,8 -878,11 l -131,6 -6,306 c -4,169 -10,459 -14,646 l -6,339 889,-8 c 489,-4 891,-9 894,-10 z m 2595,-25 c 512,-5 1376,-14 1920,-20 2613,-26 3110,-32 3114,-36 5,-5 -16,-989 -25,-1172 l -6,-123 -337,6 c -185,3 -822,10 -1416,15 -594,6 -1487,15 -1985,20 -498,5 -1436,14 -2085,20 -649,6 -1285,13 -1412,16 l -233,6 v 646 645 l 768,-7 c 422,-3 1186,-11 1697,-16 z m -3062,-1396 467,-6 v -448 c 0,-246 -3,-529 -7,-628 l -6,-182 h -252 -252 l -5,65 c -12,140 -112,281 -247,348 -59,29 -74,32 -156,32 -82,0 -97,-3 -155,-32 -130,-64 -235,-210 -247,-342 l -6,-61 H 660 463 l -6,238 c -4,130 -10,416 -13,635 l -7,398 409,-5 c 225,-4 619,-9 877,-12 z m 2502,-24 c 567,-6 1444,-15 1950,-20 506,-5 1458,-14 2115,-20 657,-6 1264,-13 1348,-16 l 154,-6 -6,-122 c -3,-66 -11,-348 -17,-626 -7,-278 -13,-507 -15,-508 -1,-2 -467,1 -1036,7 -1196,13 -2457,26 -4013,42 -605,6 -1390,14 -1745,17 l -645,7 -3,70 c -2,39 -1,324 3,634 l 7,563 437,-6 c 240,-4 900,-11 1466,-16 z M 904,1741 c 32,-62 115,-152 169,-184 162,-95 340,-66 475,77 28,30 61,75 74,100 l 22,46 h 268 268 l -2,-757 -3,-758 -755,-3 -755,-2 -52,26 c -46,22 -56,33 -84,90 l -32,65 -9,232 c -9,254 -26,1109 -22,1117 1,3 95,4 208,2 l 206,-3 z m 2971,19 c 616,-6 1532,-15 2035,-20 503,-5 1410,-14 2015,-20 605,-5 1264,-13 1464,-16 l 363,-6 -7,-327 C 9734,821 9724,654 9701,580 9652,422 9553,341 9355,297 9293,283 8920,281 5880,275 4007,272 2438,267 2393,264 l -83,-5 v 759 760 l 223,-4 c 122,-2 726,-9 1342,-14 z"
         id="path16013"
         style="fill:#ff80b2;stroke:#ff80b2;stroke-width:50;stroke-linecap:round;stroke-linejoin:bevel;stroke-dasharray:none;stroke-opacity:1" />
    </g>
    <g
       transform="matrix(0.1,0,0,-0.1,0,-2853.9016)"
       fill="#000000"
       stroke="none"
       id="g16019"
       style="fill:#ffffff">
      <path
         d="m 572,12775 c -294,-79 -454,-211 -516,-425 -9,-30 -25,-106 -36,-169 L -1,12067 20,11061 C 31,10508 45,9837 50,9570 62,8991 76,8280 90,7590 c 6,-278 15,-723 20,-990 5,-267 14,-712 20,-990 6,-278 15,-727 20,-997 12,-616 27,-1329 40,-1978 6,-275 14,-714 20,-975 5,-261 12,-628 16,-815 4,-200 12,-371 19,-415 C 280,224 384,91 555,29 l 60,-22 1745,3 c 960,1 2924,6 4365,10 2289,8 2628,11 2685,24 170,40 279,95 375,191 121,120 179,261 196,475 6,69 32,1041 60,2160 27,1119 54,2206 59,2415 5,209 14,565 20,790 23,909 31,1227 40,1600 123,4813 118,4491 64,4654 -48,145 -124,235 -246,296 -146,71 -49,68 -2408,95 -514,6 -1304,15 -1755,20 -1213,15 -3777,44 -4695,55 l -455,5 z m 2153,-255 c 435,-5 1193,-14 1685,-20 492,-6 1257,-15 1700,-20 443,-5 1246,-14 1785,-20 1526,-17 1859,-25 1925,-45 113,-35 177,-141 187,-310 3,-49 0,-290 -6,-535 -37,-1425 -71,-2816 -71,-2889 v -84 l -557,7 c -307,3 -1006,11 -1553,16 -547,6 -1422,15 -1945,20 -522,5 -1447,14 -2055,20 -608,6 -1188,12 -1290,13 l -185,2 v 575 575 l 330,-3 c 601,-5 2326,-22 3320,-32 539,-5 1430,-14 1980,-20 550,-5 1217,-12 1483,-16 l 482,-7 v 65 65 l -592,7 c -658,7 -1940,20 -3533,36 -577,6 -1441,15 -1920,20 -478,6 -1022,10 -1208,10 h -338 l 2,1278 2,1277 -60,3 -60,3 -6,-503 c -4,-277 -7,-851 -7,-1275 v -773 h -240 -239 l -12,42 c -33,124 -123,234 -238,290 -213,106 -462,-19 -546,-272 l -17,-51 -304,3 -304,3 v -61 -61 l 182,-6 c 99,-4 237,-7 304,-7 h 123 l 12,-42 c 52,-195 249,-344 429,-324 83,9 188,65 249,132 52,56 111,165 111,203 0,21 2,21 247,21 h 246 l -6,-257 c -4,-141 -7,-400 -7,-576 v -319 l -872,6 c -480,4 -905,9 -944,12 l -71,5 -7,382 c -3,210 -11,582 -16,827 -26,1238 -32,1543 -33,1860 -2,300 0,356 16,430 10,47 26,103 36,125 37,83 141,153 293,195 71,20 90,20 698,15 344,-3 981,-10 1415,-15 z m -1182,-3966 667,-6 v -585 -584 l -487,6 c -269,3 -686,8 -929,11 l -441,6 -6,232 c -4,127 -10,390 -13,585 l -7,353 274,-6 c 151,-3 574,-9 942,-12 z m 2462,-24 c 589,-6 1502,-15 2030,-20 528,-5 1417,-14 1975,-20 558,-5 1217,-12 1464,-16 l 449,-6 -8,-307 c -4,-168 -10,-428 -14,-578 -3,-149 -8,-273 -11,-276 -3,-2 -354,0 -780,4 -719,7 -1212,12 -3865,39 -1994,20 -2909,31 -2909,33 -1,1 0,264 2,585 l 3,583 297,-6 c 163,-3 779,-10 1367,-15 z m -2046,-1276 254,-6 -6,-187 c -4,-102 -7,-356 -7,-563 v -378 h -240 -240 v 33 c 0,18 -7,59 -15,92 -56,212 -255,357 -450,325 -163,-27 -316,-187 -345,-361 -5,-35 -10,-68 -10,-73 0,-10 -507,-2 -518,8 -4,4 -10,175 -14,379 -3,205 -9,457 -11,561 l -5,188 676,-6 c 372,-3 791,-9 931,-12 z m 2526,-24 c 550,-6 1403,-15 1895,-20 492,-5 1482,-15 2200,-21 718,-7 1306,-13 1308,-14 5,-4 -26,-1126 -31,-1131 -2,-2 -424,0 -938,6 -514,5 -1397,14 -1964,20 -566,6 -1446,15 -1955,20 -509,5 -1249,12 -1645,15 -396,3 -789,8 -872,11 l -153,6 v 566 565 l 578,-7 c 317,-3 1027,-11 1577,-16 z M 758,6003 l 173,-6 31,-58 c 37,-70 115,-147 189,-185 49,-27 63,-29 159,-29 100,0 108,2 167,34 76,41 145,108 185,178 l 30,53 h 254 254 l -2,-631 -3,-632 -485,3 c -267,2 -669,6 -895,9 l -410,6 -6,285 c -4,157 -10,441 -14,633 l -7,347 h 104 c 56,0 181,-3 276,-7 z m 3372,-33 c 575,-6 1468,-15 1985,-20 517,-5 1444,-14 2060,-20 616,-5 1248,-13 1404,-16 l 283,-6 -6,-147 c -3,-80 -11,-362 -17,-626 -6,-264 -13,-482 -15,-484 -4,-4 -1064,6 -3264,29 -487,5 -1402,14 -2035,21 -632,6 -1386,14 -1675,17 l -525,7 v 118 c 0,64 1,349 3,633 l 2,516 378,-6 c 207,-4 847,-11 1422,-16 z M 2190,4595 c 3,-2 4,-294 2,-650 l -2,-646 -748,6 c -411,3 -806,8 -878,11 l -131,6 -6,306 c -4,169 -10,459 -14,646 l -6,339 889,-8 c 489,-4 891,-9 894,-10 z m 2595,-25 c 512,-5 1376,-14 1920,-20 2613,-26 3110,-32 3114,-36 5,-5 -16,-989 -25,-1172 l -6,-123 -337,6 c -185,3 -822,10 -1416,15 -594,6 -1487,15 -1985,20 -498,5 -1436,14 -2085,20 -649,6 -1285,13 -1412,16 l -233,6 v 646 645 l 768,-7 c 422,-3 1186,-11 1697,-16 z m -3062,-1396 467,-6 v -448 c 0,-246 -3,-529 -7,-628 l -6,-182 h -252 -252 l -5,65 c -12,140 -112,281 -247,348 -59,29 -74,32 -156,32 -82,0 -97,-3 -155,-32 -130,-64 -235,-210 -247,-342 l -6,-61 H 660 463 l -6,238 c -4,130 -10,416 -13,635 l -7,398 409,-5 c 225,-4 619,-9 877,-12 z m 2502,-24 c 567,-6 1444,-15 1950,-20 506,-5 1458,-14 2115,-20 657,-6 1264,-13 1348,-16 l 154,-6 -6,-122 c -3,-66 -11,-348 -17,-626 -7,-278 -13,-507 -15,-508 -1,-2 -467,1 -1036,7 -1196,13 -2457,26 -4013,42 -605,6 -1390,14 -1745,17 l -645,7 -3,70 c -2,39 -1,324 3,634 l 7,563 437,-6 c 240,-4 900,-11 1466,-16 z M 904,1741 c 32,-62 115,-152 169,-184 162,-95 340,-66 475,77 28,30 61,75 74,100 l 22,46 h 268 268 l -2,-757 -3,-758 -755,-3 -755,-2 -52,26 c -46,22 -56,33 -84,90 l -32,65 -9,232 c -9,254 -26,1109 -22,1117 1,3 95,4 208,2 l 206,-3 z m 2971,19 c 616,-6 1532,-15 2035,-20 503,-5 1410,-14 2015,-20 605,-5 1264,-13 1464,-16 l 363,-6 -7,-327 C 9734,821 9724,654 9701,580 9652,422 9553,341 9355,297 9293,283 8920,281 5880,275 4007,272 2438,267 2393,264 l -83,-5 v 759 760 l 223,-4 c 122,-2 726,-9 1342,-14 z"
         id="path16017"
         style="fill:#ffffff" />
    </g>
  </g>
</svg>
