<?xml version="1.0" encoding="UTF-8" standalone="no"?>
<!-- Svg Vector Icons : http://www.onlinewebfonts.com/icon -->

<svg
   version="1.1"
   x="0px"
   y="0px"
   viewBox="0 0 1000 1000"
   enable-background="new 0 0 1000 1000"
   xml:space="preserve"
   id="svg14"
   sodipodi:docname="ef22ca3b52725629abd502258290f793.svg"
   inkscape:version="1.2.2 (1:1.2.2+202212051552+b0a8486541)"
   xmlns:inkscape="http://www.inkscape.org/namespaces/inkscape"
   xmlns:sodipodi="http://sodipodi.sourceforge.net/DTD/sodipodi-0.dtd"
   xmlns="http://www.w3.org/2000/svg"
   xmlns:svg="http://www.w3.org/2000/svg"><defs
   id="defs18"><filter
     inkscape:collect="always"
     style="color-interpolation-filters:sRGB"
     id="filter12531"
     x="-0.035811146"
     y="-0.051071195"
     width="1.0715042"
     height="1.1021573"><feGaussianBlur
       inkscape:collect="always"
       stdDeviation="9.3646661"
       id="feGaussianBlur12533" /></filter><filter
     inkscape:collect="always"
     style="color-interpolation-filters:sRGB"
     id="filter12535"
     x="-0.016373515"
     y="-0.023347291"
     width="1.0326908"
     height="1.0467017"><feGaussianBlur
       inkscape:collect="always"
       stdDeviation="4.1620738"
       id="feGaussianBlur12537" /></filter><filter
     inkscape:collect="always"
     style="color-interpolation-filters:sRGB"
     id="filter12539"
     x="-0.0029774549"
     y="-0.0042331654"
     width="1.0059363"
     height="1.0084687"><feGaussianBlur
       inkscape:collect="always"
       stdDeviation="0.37458664"
       id="feGaussianBlur12541" /></filter></defs><sodipodi:namedview
   id="namedview16"
   pagecolor="#505050"
   bordercolor="#eeeeee"
   borderopacity="1"
   inkscape:showpageshadow="0"
   inkscape:pageopacity="0"
   inkscape:pagecheckerboard="0"
   inkscape:deskcolor="#505050"
   showgrid="false"
   showborder="true"
   inkscape:zoom="0.70710678"
   inkscape:cx="291.32799"
   inkscape:cy="704.98546"
   inkscape:window-width="2560"
   inkscape:window-height="1372"
   inkscape:window-x="1920"
   inkscape:window-y="31"
   inkscape:window-maximized="1"
   inkscape:current-layer="svg14" />
<metadata
   id="metadata2"> Svg Vector Icons : http://www.onlinewebfonts.com/icon </metadata>

<g
   id="g14019"
   transform="matrix(0.94410511,0,0,0.95872345,267.78859,1992.5306)"><g
     id="g12"
     style="fill:#ff0066;stroke:#ff0066;stroke-width:25;stroke-linecap:round;stroke-linejoin:bevel;stroke-dasharray:none;stroke-opacity:1;filter:url(#filter12531)"
     transform="translate(-254.13209,-2077.6009)"
     inkscape:transform-center-x="22.111096"
     inkscape:transform-center-y="1.8974687"><g
       transform="matrix(0.1,0,0,-0.1,0,511)"
       id="g10"
       style="fill:#ff0066;stroke:#ff0066;stroke-width:250;stroke-linecap:round;stroke-linejoin:bevel;stroke-dasharray:none;stroke-opacity:1"><path
         d="M 4796.8,3345.6 C 4267.1,3242.5 3816.8,3149.2 3795,3137.3 3773.2,3125.4 3311,2601.7 2767.4,1972.8 2223.8,1342 1741.7,786.5 1696.1,734.9 l -83.3,-93.2 -317.4,57.5 c -174.6,33.7 -339.2,59.5 -367,59.5 -121,0 -109.1,47.6 -496,-1926.3 C 55.5,-3101.8 59.5,-3078 152.7,-3127.6 c 23.8,-13.9 1208.1,-41.7 3378.4,-81.3 1835,-33.7 3995.4,-73.4 4796.9,-87.3 1569.2,-29.8 1513.7,-31.7 1567.2,67.5 17.9,31.7 -11.9,263.9 -128.9,1027.6 -83.3,541.6 -176.6,1156.6 -208.3,1362.9 -51.6,333.3 -63.5,380.9 -105.1,418.6 -39.7,33.7 -113.1,47.6 -456.3,87.3 -232.1,25.8 -410.7,55.6 -410.7,67.5 0,9.9 81.3,355.1 178.5,765.8 99.2,410.6 178.5,763.8 178.5,785.6 0,21.8 -216.3,355.1 -482.1,741.9 l -482.1,704.3 -1089.1,400.7 c -601.1,222.2 -1099,400.7 -1110.9,400.7 -9.8,-2.1 -452.2,-85.4 -981.9,-188.6 z m 2001.7,-507.8 980,-363 422.5,-617 422.6,-617 -178.5,-740 c -97.2,-408.7 -178.5,-744 -182.5,-745.9 -2,0 -436.4,47.6 -966.1,111.1 -759.8,89.3 -974,109.1 -1015.7,91.3 C 6251,-54.6 6007,-251 5735.3,-481.1 5465.5,-709.2 5221.5,-917.5 5191.7,-941.3 L 5138,-987 4965.4,-560.5 c -95.2,232.1 -190.4,438.4 -210.3,458.3 -19.8,17.8 -333.3,121 -696.3,228.1 -609,180.5 -714.2,206.3 -1335.1,317.4 -371,65.5 -688.4,125 -708.2,132.9 -23.8,11.9 176.6,253.9 940.3,1134.7 533.7,617 978,1128.8 986,1136.7 23.8,23.8 1789.4,369 1837,359.1 21.8,-3.9 480.1,-170.5 1019.7,-368.9 z M 2200,223.1 C 3275.2,30.7 3312.9,22.7 3918,-155.8 l 618.9,-182.5 168.6,-408.7 c 93.2,-224.2 333.3,-807.4 533.6,-1295.4 l 365,-888.8 H 5503 c -259.9,-2 -5062.7,87.3 -5070.6,93.3 -7.9,7.9 613,3217.7 628.9,3245.5 4,7.9 15.9,13.9 23.8,13.9 9.9,0 511.8,-89.3 1114.9,-198.4 z m 5897.9,-763.8 c 611,-71.4 1112.9,-130.9 1114.9,-134.9 9.9,-7.9 363.1,-2323.1 357.1,-2331 -4,-2 -499.9,5.9 -1105,17.8 -605.1,9.9 -1418.4,25.8 -1809.2,33.7 l -710.2,13.9 -327.3,793.5 c -180.5,436.4 -331.3,811.4 -335.3,833.2 -7.9,31.8 103.2,132.9 547.5,505.9 l 555.5,468.2 301.5,-35.7 c 166.6,-19.7 801.4,-93.1 1410.5,-164.6 z"
         id="path4"
         style="fill:#ff0066;stroke:#ff0066;stroke-width:250;stroke-linecap:round;stroke-linejoin:bevel;stroke-dasharray:none;stroke-opacity:1" /><path
         d="m 6949.2,2117.7 c -27.8,-25.8 -49.6,-69.4 -49.6,-97.2 0,-49.6 630.8,-1023.7 700.3,-1079.2 15.9,-13.9 59.5,-27.8 95.2,-27.8 73.4,-2 156.7,77.4 156.7,148.8 0,49.6 -666.6,1059.4 -716.1,1087.1 -61.5,31.7 -136.9,19.8 -186.5,-31.7 z"
         id="path6"
         style="fill:#ff0066;stroke:#ff0066;stroke-width:250;stroke-linecap:round;stroke-linejoin:bevel;stroke-dasharray:none;stroke-opacity:1" /><path
         d="m 8397.4,-1453.2 c -65.5,-63.5 -63.5,-103.1 21.8,-424.5 75.4,-289.6 117.1,-359.1 218.2,-359.1 61.5,0 146.8,83.3 146.8,144.8 0,25.8 -31.7,170.6 -71.4,323.4 -53.6,216.2 -81.3,285.7 -119,321.4 -65.5,57.5 -136.9,55.5 -196.4,-6 z"
         id="path8"
         style="fill:#ff0066;stroke:#ff0066;stroke-width:250;stroke-linecap:round;stroke-linejoin:bevel;stroke-dasharray:none;stroke-opacity:1" /></g></g><g
     id="g3866"
     style="fill:#ff2a7f;stroke:#ff2a7f;stroke-width:12;stroke-linecap:round;stroke-linejoin:bevel;stroke-dasharray:none;stroke-opacity:1;filter:url(#filter12535)"
     transform="translate(-254.16237,-2077.5982)"
     inkscape:transform-center-x="22.141376"
     inkscape:transform-center-y="1.9001687"><g
       transform="matrix(0.1,0,0,-0.1,0,511)"
       id="g3864"
       style="fill:#ff2a7f;stroke:#ff2a7f;stroke-width:120;stroke-linecap:round;stroke-linejoin:bevel;stroke-dasharray:none;stroke-opacity:1"><path
         d="M 4796.8,3345.6 C 4267.1,3242.5 3816.8,3149.2 3795,3137.3 3773.2,3125.4 3311,2601.7 2767.4,1972.8 2223.8,1342 1741.7,786.5 1696.1,734.9 l -83.3,-93.2 -317.4,57.5 c -174.6,33.7 -339.2,59.5 -367,59.5 -121,0 -109.1,47.6 -496,-1926.3 C 55.5,-3101.8 59.5,-3078 152.7,-3127.6 c 23.8,-13.9 1208.1,-41.7 3378.4,-81.3 1835,-33.7 3995.4,-73.4 4796.9,-87.3 1569.2,-29.8 1513.7,-31.7 1567.2,67.5 17.9,31.7 -11.9,263.9 -128.9,1027.6 -83.3,541.6 -176.6,1156.6 -208.3,1362.9 -51.6,333.3 -63.5,380.9 -105.1,418.6 -39.7,33.7 -113.1,47.6 -456.3,87.3 -232.1,25.8 -410.7,55.6 -410.7,67.5 0,9.9 81.3,355.1 178.5,765.8 99.2,410.6 178.5,763.8 178.5,785.6 0,21.8 -216.3,355.1 -482.1,741.9 l -482.1,704.3 -1089.1,400.7 c -601.1,222.2 -1099,400.7 -1110.9,400.7 -9.8,-2.1 -452.2,-85.4 -981.9,-188.6 z m 2001.7,-507.8 980,-363 422.5,-617 422.6,-617 -178.5,-740 c -97.2,-408.7 -178.5,-744 -182.5,-745.9 -2,0 -436.4,47.6 -966.1,111.1 -759.8,89.3 -974,109.1 -1015.7,91.3 C 6251,-54.6 6007,-251 5735.3,-481.1 5465.5,-709.2 5221.5,-917.5 5191.7,-941.3 L 5138,-987 4965.4,-560.5 c -95.2,232.1 -190.4,438.4 -210.3,458.3 -19.8,17.8 -333.3,121 -696.3,228.1 -609,180.5 -714.2,206.3 -1335.1,317.4 -371,65.5 -688.4,125 -708.2,132.9 -23.8,11.9 176.6,253.9 940.3,1134.7 533.7,617 978,1128.8 986,1136.7 23.8,23.8 1789.4,369 1837,359.1 21.8,-3.9 480.1,-170.5 1019.7,-368.9 z M 2200,223.1 C 3275.2,30.7 3312.9,22.7 3918,-155.8 l 618.9,-182.5 168.6,-408.7 c 93.2,-224.2 333.3,-807.4 533.6,-1295.4 l 365,-888.8 H 5503 c -259.9,-2 -5062.7,87.3 -5070.6,93.3 -7.9,7.9 613,3217.7 628.9,3245.5 4,7.9 15.9,13.9 23.8,13.9 9.9,0 511.8,-89.3 1114.9,-198.4 z m 5897.9,-763.8 c 611,-71.4 1112.9,-130.9 1114.9,-134.9 9.9,-7.9 363.1,-2323.1 357.1,-2331 -4,-2 -499.9,5.9 -1105,17.8 -605.1,9.9 -1418.4,25.8 -1809.2,33.7 l -710.2,13.9 -327.3,793.5 c -180.5,436.4 -331.3,811.4 -335.3,833.2 -7.9,31.8 103.2,132.9 547.5,505.9 l 555.5,468.2 301.5,-35.7 c 166.6,-19.7 801.4,-93.1 1410.5,-164.6 z"
         id="path3858"
         style="fill:#ff2a7f;stroke:#ff2a7f;stroke-width:120;stroke-linecap:round;stroke-linejoin:bevel;stroke-dasharray:none;stroke-opacity:1" /><path
         d="m 6949.2,2117.7 c -27.8,-25.8 -49.6,-69.4 -49.6,-97.2 0,-49.6 630.8,-1023.7 700.3,-1079.2 15.9,-13.9 59.5,-27.8 95.2,-27.8 73.4,-2 156.7,77.4 156.7,148.8 0,49.6 -666.6,1059.4 -716.1,1087.1 -61.5,31.7 -136.9,19.8 -186.5,-31.7 z"
         id="path3860"
         style="fill:#ff2a7f;stroke:#ff2a7f;stroke-width:120;stroke-linecap:round;stroke-linejoin:bevel;stroke-dasharray:none;stroke-opacity:1" /><path
         d="m 8397.4,-1453.2 c -65.5,-63.5 -63.5,-103.1 21.8,-424.5 75.4,-289.6 117.1,-359.1 218.2,-359.1 61.5,0 146.8,83.3 146.8,144.8 0,25.8 -31.7,170.6 -71.4,323.4 -53.6,216.2 -81.3,285.7 -119,321.4 -65.5,57.5 -136.9,55.5 -196.4,-6 z"
         id="path3862"
         style="fill:#ff2a7f;stroke:#ff2a7f;stroke-width:120;stroke-linecap:round;stroke-linejoin:bevel;stroke-dasharray:none;stroke-opacity:1" /></g></g><g
     id="g3876"
     style="fill:#ff80b2;stroke:#ff80b2;stroke-width:4;stroke-linecap:round;stroke-linejoin:bevel;stroke-dasharray:none;stroke-opacity:1;filter:url(#filter12539)"
     transform="translate(-254.1808,-2077.5966)"
     inkscape:transform-center-x="22.159806"
     inkscape:transform-center-y="1.9017687"><g
       transform="matrix(0.1,0,0,-0.1,0,511)"
       id="g3874"
       style="fill:#ff80b2;stroke:#ff80b2;stroke-width:40;stroke-linecap:round;stroke-linejoin:bevel;stroke-dasharray:none;stroke-opacity:1"><path
         d="M 4796.8,3345.6 C 4267.1,3242.5 3816.8,3149.2 3795,3137.3 3773.2,3125.4 3311,2601.7 2767.4,1972.8 2223.8,1342 1741.7,786.5 1696.1,734.9 l -83.3,-93.2 -317.4,57.5 c -174.6,33.7 -339.2,59.5 -367,59.5 -121,0 -109.1,47.6 -496,-1926.3 C 55.5,-3101.8 59.5,-3078 152.7,-3127.6 c 23.8,-13.9 1208.1,-41.7 3378.4,-81.3 1835,-33.7 3995.4,-73.4 4796.9,-87.3 1569.2,-29.8 1513.7,-31.7 1567.2,67.5 17.9,31.7 -11.9,263.9 -128.9,1027.6 -83.3,541.6 -176.6,1156.6 -208.3,1362.9 -51.6,333.3 -63.5,380.9 -105.1,418.6 -39.7,33.7 -113.1,47.6 -456.3,87.3 -232.1,25.8 -410.7,55.6 -410.7,67.5 0,9.9 81.3,355.1 178.5,765.8 99.2,410.6 178.5,763.8 178.5,785.6 0,21.8 -216.3,355.1 -482.1,741.9 l -482.1,704.3 -1089.1,400.7 c -601.1,222.2 -1099,400.7 -1110.9,400.7 -9.8,-2.1 -452.2,-85.4 -981.9,-188.6 z m 2001.7,-507.8 980,-363 422.5,-617 422.6,-617 -178.5,-740 c -97.2,-408.7 -178.5,-744 -182.5,-745.9 -2,0 -436.4,47.6 -966.1,111.1 -759.8,89.3 -974,109.1 -1015.7,91.3 C 6251,-54.6 6007,-251 5735.3,-481.1 5465.5,-709.2 5221.5,-917.5 5191.7,-941.3 L 5138,-987 4965.4,-560.5 c -95.2,232.1 -190.4,438.4 -210.3,458.3 -19.8,17.8 -333.3,121 -696.3,228.1 -609,180.5 -714.2,206.3 -1335.1,317.4 -371,65.5 -688.4,125 -708.2,132.9 -23.8,11.9 176.6,253.9 940.3,1134.7 533.7,617 978,1128.8 986,1136.7 23.8,23.8 1789.4,369 1837,359.1 21.8,-3.9 480.1,-170.5 1019.7,-368.9 z M 2200,223.1 C 3275.2,30.7 3312.9,22.7 3918,-155.8 l 618.9,-182.5 168.6,-408.7 c 93.2,-224.2 333.3,-807.4 533.6,-1295.4 l 365,-888.8 H 5503 c -259.9,-2 -5062.7,87.3 -5070.6,93.3 -7.9,7.9 613,3217.7 628.9,3245.5 4,7.9 15.9,13.9 23.8,13.9 9.9,0 511.8,-89.3 1114.9,-198.4 z m 5897.9,-763.8 c 611,-71.4 1112.9,-130.9 1114.9,-134.9 9.9,-7.9 363.1,-2323.1 357.1,-2331 -4,-2 -499.9,5.9 -1105,17.8 -605.1,9.9 -1418.4,25.8 -1809.2,33.7 l -710.2,13.9 -327.3,793.5 c -180.5,436.4 -331.3,811.4 -335.3,833.2 -7.9,31.8 103.2,132.9 547.5,505.9 l 555.5,468.2 301.5,-35.7 c 166.6,-19.7 801.4,-93.1 1410.5,-164.6 z"
         id="path3868"
         style="fill:#ff80b2;stroke:#ff80b2;stroke-width:40;stroke-linecap:round;stroke-linejoin:bevel;stroke-dasharray:none;stroke-opacity:1" /><path
         d="m 6949.2,2117.7 c -27.8,-25.8 -49.6,-69.4 -49.6,-97.2 0,-49.6 630.8,-1023.7 700.3,-1079.2 15.9,-13.9 59.5,-27.8 95.2,-27.8 73.4,-2 156.7,77.4 156.7,148.8 0,49.6 -666.6,1059.4 -716.1,1087.1 -61.5,31.7 -136.9,19.8 -186.5,-31.7 z"
         id="path3870"
         style="fill:#ff80b2;stroke:#ff80b2;stroke-width:40;stroke-linecap:round;stroke-linejoin:bevel;stroke-dasharray:none;stroke-opacity:1" /><path
         d="m 8397.4,-1453.2 c -65.5,-63.5 -63.5,-103.1 21.8,-424.5 75.4,-289.6 117.1,-359.1 218.2,-359.1 61.5,0 146.8,83.3 146.8,144.8 0,25.8 -31.7,170.6 -71.4,323.4 -53.6,216.2 -81.3,285.7 -119,321.4 -65.5,57.5 -136.9,55.5 -196.4,-6 z"
         id="path3872"
         style="fill:#ff80b2;stroke:#ff80b2;stroke-width:40;stroke-linecap:round;stroke-linejoin:bevel;stroke-dasharray:none;stroke-opacity:1" /></g></g><g
     id="g1644"
     style="fill:#ffffff"
     transform="translate(-254.18994,-2077.5958)"
     inkscape:transform-center-x="22.168946"
     inkscape:transform-center-y="1.9025687"><g
       transform="matrix(0.1,0,0,-0.1,0,511)"
       id="g1642"
       style="fill:#ffffff"><path
         d="M 4796.8,3345.6 C 4267.1,3242.5 3816.8,3149.2 3795,3137.3 3773.2,3125.4 3311,2601.7 2767.4,1972.8 2223.8,1342 1741.7,786.5 1696.1,734.9 l -83.3,-93.2 -317.4,57.5 c -174.6,33.7 -339.2,59.5 -367,59.5 -121,0 -109.1,47.6 -496,-1926.3 C 55.5,-3101.8 59.5,-3078 152.7,-3127.6 c 23.8,-13.9 1208.1,-41.7 3378.4,-81.3 1835,-33.7 3995.4,-73.4 4796.9,-87.3 1569.2,-29.8 1513.7,-31.7 1567.2,67.5 17.9,31.7 -11.9,263.9 -128.9,1027.6 -83.3,541.6 -176.6,1156.6 -208.3,1362.9 -51.6,333.3 -63.5,380.9 -105.1,418.6 -39.7,33.7 -113.1,47.6 -456.3,87.3 -232.1,25.8 -410.7,55.6 -410.7,67.5 0,9.9 81.3,355.1 178.5,765.8 99.2,410.6 178.5,763.8 178.5,785.6 0,21.8 -216.3,355.1 -482.1,741.9 l -482.1,704.3 -1089.1,400.7 c -601.1,222.2 -1099,400.7 -1110.9,400.7 -9.8,-2.1 -452.2,-85.4 -981.9,-188.6 z m 2001.7,-507.8 980,-363 422.5,-617 422.6,-617 -178.5,-740 c -97.2,-408.7 -178.5,-744 -182.5,-745.9 -2,0 -436.4,47.6 -966.1,111.1 -759.8,89.3 -974,109.1 -1015.7,91.3 C 6251,-54.6 6007,-251 5735.3,-481.1 5465.5,-709.2 5221.5,-917.5 5191.7,-941.3 L 5138,-987 4965.4,-560.5 c -95.2,232.1 -190.4,438.4 -210.3,458.3 -19.8,17.8 -333.3,121 -696.3,228.1 -609,180.5 -714.2,206.3 -1335.1,317.4 -371,65.5 -688.4,125 -708.2,132.9 -23.8,11.9 176.6,253.9 940.3,1134.7 533.7,617 978,1128.8 986,1136.7 23.8,23.8 1789.4,369 1837,359.1 21.8,-3.9 480.1,-170.5 1019.7,-368.9 z M 2200,223.1 C 3275.2,30.7 3312.9,22.7 3918,-155.8 l 618.9,-182.5 168.6,-408.7 c 93.2,-224.2 333.3,-807.4 533.6,-1295.4 l 365,-888.8 H 5503 c -259.9,-2 -5062.7,87.3 -5070.6,93.3 -7.9,7.9 613,3217.7 628.9,3245.5 4,7.9 15.9,13.9 23.8,13.9 9.9,0 511.8,-89.3 1114.9,-198.4 z m 5897.9,-763.8 c 611,-71.4 1112.9,-130.9 1114.9,-134.9 9.9,-7.9 363.1,-2323.1 357.1,-2331 -4,-2 -499.9,5.9 -1105,17.8 -605.1,9.9 -1418.4,25.8 -1809.2,33.7 l -710.2,13.9 -327.3,793.5 c -180.5,436.4 -331.3,811.4 -335.3,833.2 -7.9,31.8 103.2,132.9 547.5,505.9 l 555.5,468.2 301.5,-35.7 c 166.6,-19.7 801.4,-93.1 1410.5,-164.6 z"
         id="path1636"
         style="fill:#ffffff" /><path
         d="m 6949.2,2117.7 c -27.8,-25.8 -49.6,-69.4 -49.6,-97.2 0,-49.6 630.8,-1023.7 700.3,-1079.2 15.9,-13.9 59.5,-27.8 95.2,-27.8 73.4,-2 156.7,77.4 156.7,148.8 0,49.6 -666.6,1059.4 -716.1,1087.1 -61.5,31.7 -136.9,19.8 -186.5,-31.7 z"
         id="path1638"
         style="fill:#ffffff" /><path
         d="m 8397.4,-1453.2 c -65.5,-63.5 -63.5,-103.1 21.8,-424.5 75.4,-289.6 117.1,-359.1 218.2,-359.1 61.5,0 146.8,83.3 146.8,144.8 0,25.8 -31.7,170.6 -71.4,323.4 -53.6,216.2 -81.3,285.7 -119,321.4 -65.5,57.5 -136.9,55.5 -196.4,-6 z"
         id="path1640"
         style="fill:#ffffff" /></g></g></g></svg>
