<?xml version="1.0" encoding="UTF-8" standalone="no"?>
<!-- Uploaded to: SVG Repo, www.svgrepo.com, Transformed by: SVG Repo Tools -->

<svg
   fill="#000000"
   version="1.1"
   id="Capa_1"
   viewBox="0 0 380.621 380.62"
   xml:space="preserve"
   sodipodi:docname="scissors-svgrepo-com.svg"
   inkscape:version="1.2.2 (1:1.2.2+202212051552+b0a8486541)"
   xmlns:inkscape="http://www.inkscape.org/namespaces/inkscape"
   xmlns:sodipodi="http://sodipodi.sourceforge.net/DTD/sodipodi-0.dtd"
   xmlns="http://www.w3.org/2000/svg"
   xmlns:svg="http://www.w3.org/2000/svg"><defs
   id="defs14095"><filter
     inkscape:collect="always"
     style="color-interpolation-filters:sRGB"
     id="filter15918"
     x="-0.042517977"
     y="-0.034134301"
     width="1.07631"
     height="1.0768228"><feGaussianBlur
       inkscape:collect="always"
       stdDeviation="4.273396"
       id="feGaussianBlur15920" /></filter><filter
     inkscape:collect="always"
     style="color-interpolation-filters:sRGB"
     id="filter15922"
     x="-0.015139219"
     y="-0.011093826"
     width="1.02609"
     height="1.0262937"><feGaussianBlur
       inkscape:collect="always"
       stdDeviation="1.2155437"
       id="feGaussianBlur15924" /></filter><filter
     inkscape:collect="always"
     style="color-interpolation-filters:sRGB"
     id="filter15926"
     x="-0.0029464838"
     y="-0.0019317645"
     width="1.0048459"
     height="1.00489"><feGaussianBlur
       inkscape:collect="always"
       stdDeviation="0.17093584"
       id="feGaussianBlur15928" /></filter></defs><sodipodi:namedview
   id="namedview14093"
   pagecolor="#505050"
   bordercolor="#eeeeee"
   borderopacity="1"
   inkscape:showpageshadow="0"
   inkscape:pageopacity="0"
   inkscape:pagecheckerboard="0"
   inkscape:deskcolor="#505050"
   showgrid="false"
   showborder="true"
   inkscape:zoom="0.59"
   inkscape:cx="-299.15254"
   inkscape:cy="355.08475"
   inkscape:window-width="2560"
   inkscape:window-height="1372"
   inkscape:window-x="1920"
   inkscape:window-y="31"
   inkscape:window-maximized="1"
   inkscape:current-layer="Capa_1" />

<g
   id="g14062">
</g>
<g
   id="g14064">
</g>
<g
   id="g14066">
</g>
<g
   id="g14068">
</g>
<g
   id="g14070">
</g>
<g
   id="g14072">
</g>
<g
   id="g14074">
</g>
<g
   id="g14076">
</g>
<g
   id="g14078">
</g>
<g
   id="g14080">
</g>
<g
   id="g14082">
</g>
<g
   id="g14084">
</g>
<g
   id="g14086">
</g>
<g
   id="g14088">
</g>
<g
   id="g14090">
</g>
<g
   id="g15950"
   transform="matrix(0.86282648,0,0,0.90858252,24.688845,1239.4222)"><g
     id="g14060"
     style="fill:#ff0066;stroke:#ff0066;stroke-width:11.8944;stroke-linecap:round;stroke-linejoin:bevel;stroke-dasharray:none;stroke-opacity:1;filter:url(#filter15918)"
     transform="translate(0.86353257,-1348.8976)">
	<g
   id="g14058"
   style="fill:#ff0066;stroke:#ff0066;stroke-width:11.8944;stroke-linecap:round;stroke-linejoin:bevel;stroke-dasharray:none;stroke-opacity:1">
		<path
   d="m 380.621,106.955 -9.716,-0.607 c 0,0 -77.068,24.417 -134.193,42.832 -4.285,12.792 -8.186,24.347 -11.303,33.432 z"
   id="path14052"
   style="fill:#ff0066;stroke:#ff0066;stroke-width:11.8944;stroke-linecap:round;stroke-linejoin:bevel;stroke-dasharray:none;stroke-opacity:1" />
		<path
   d="m 176.604,169.089 c -47.83,15.245 -95.35,-5.838 -98.742,-7.392 -14.159,-8.863 -33.519,-9.365 -50.142,-0.525 -11.537,6.119 -20.3,15.869 -24.714,27.43 -4.531,11.899 -3.924,24.3 1.71,34.891 1.816,3.422 4.11,6.551 6.825,9.318 14.147,14.363 37.88,17.049 57.697,6.516 0.07,-0.034 0.14,-0.093 0.228,-0.14 -0.099,0.187 -0.146,0.28 -0.146,0.28 l 123.246,-60.207 0.07,0.029 -4.671,-14.217 c -6.34,2.125 -10.427,3.562 -11.361,4.017 z m -114.085,57.58 c -14.252,7.59 -31.032,5.979 -40.765,-3.924 -1.733,-1.763 -3.217,-3.771 -4.373,-5.979 -3.672,-6.89 -4.005,-15.087 -0.969,-23.074 3.17,-8.32 9.563,-15.373 18.029,-19.869 14.27,-7.573 31.021,-5.967 40.753,3.917 1.746,1.775 3.217,3.784 4.385,5.979 3.661,6.901 4.011,15.086 0.981,23.074 -3.165,8.315 -9.576,15.369 -18.041,19.876 z"
   id="path14054"
   style="fill:#ff0066;stroke:#ff0066;stroke-width:11.8944;stroke-linecap:round;stroke-linejoin:bevel;stroke-dasharray:none;stroke-opacity:1" />
		<path
   d="m 215.424,353.342 c 9.54,-16.803 9.342,-36.631 0.257,-51.134 -2.148,-5.22 -20.242,-51.577 -4.052,-97.913 3.608,-7.006 65.182,-194.301 65.182,-194.301 l -0.748,-9.23 -82.265,162.668 8.081,24.633 -62.046,119.34 c -0.467,0.76 -0.969,1.494 -1.407,2.254 -11.204,19.746 -9.044,43.684 5.261,58.21 v 0 c 2.592,2.64 5.547,4.905 8.764,6.726 10.439,5.933 22.8,6.879 34.833,2.687 11.705,-4.065 21.695,-12.566 28.14,-23.94 z M 204.763,171.214 c -2.931,-2.978 -2.884,-7.748 0.082,-10.69 2.978,-2.925 7.765,-2.89 10.696,0.087 2.931,2.978 2.896,7.76 -0.082,10.69 -2.977,2.926 -7.765,2.891 -10.696,-0.087 z m -22.18,192.544 c -8.069,2.803 -16.249,2.242 -23.045,-1.611 -2.055,-1.18 -3.953,-2.639 -5.616,-4.32 -9.833,-9.996 -11.076,-26.881 -3.013,-41.092 4.734,-8.326 11.957,-14.538 20.376,-17.469 8.058,-2.814 16.237,-2.254 23.027,1.623 2.067,1.18 3.971,2.615 5.634,4.309 9.827,9.984 11.076,26.881 3.013,41.092 -4.747,8.325 -11.981,14.525 -20.376,17.468 z"
   id="path14056"
   style="fill:#ff0066;stroke:#ff0066;stroke-width:11.8944;stroke-linecap:round;stroke-linejoin:bevel;stroke-dasharray:none;stroke-opacity:1" />
	</g>
</g><g
     id="g14125"
     transform="translate(-3.3069493e-6,-1348.0545)"
     style="fill:#ff2a7f;stroke:#ff2a7f;stroke-width:5.70931;stroke-linecap:round;stroke-linejoin:bevel;stroke-dasharray:none;stroke-opacity:1;filter:url(#filter15922)">
	<g
   id="g14123"
   style="fill:#ff2a7f;stroke:#ff2a7f;stroke-width:5.70931;stroke-linecap:round;stroke-linejoin:bevel;stroke-dasharray:none;stroke-opacity:1">
		<path
   d="m 380.621,106.955 -9.716,-0.607 c 0,0 -77.068,24.417 -134.193,42.832 -4.285,12.792 -8.186,24.347 -11.303,33.432 z"
   id="path14117"
   style="fill:#ff2a7f;stroke:#ff2a7f;stroke-width:5.70931;stroke-linecap:round;stroke-linejoin:bevel;stroke-dasharray:none;stroke-opacity:1" />
		<path
   d="m 176.604,169.089 c -47.83,15.245 -95.35,-5.838 -98.742,-7.392 -14.159,-8.863 -33.519,-9.365 -50.142,-0.525 -11.537,6.119 -20.3,15.869 -24.714,27.43 -4.531,11.899 -3.924,24.3 1.71,34.891 1.816,3.422 4.11,6.551 6.825,9.318 14.147,14.363 37.88,17.049 57.697,6.516 0.07,-0.034 0.14,-0.093 0.228,-0.14 -0.099,0.187 -0.146,0.28 -0.146,0.28 l 123.246,-60.207 0.07,0.029 -4.671,-14.217 c -6.34,2.125 -10.427,3.562 -11.361,4.017 z m -114.085,57.58 c -14.252,7.59 -31.032,5.979 -40.765,-3.924 -1.733,-1.763 -3.217,-3.771 -4.373,-5.979 -3.672,-6.89 -4.005,-15.087 -0.969,-23.074 3.17,-8.32 9.563,-15.373 18.029,-19.869 14.27,-7.573 31.021,-5.967 40.753,3.917 1.746,1.775 3.217,3.784 4.385,5.979 3.661,6.901 4.011,15.086 0.981,23.074 -3.165,8.315 -9.576,15.369 -18.041,19.876 z"
   id="path14119"
   style="fill:#ff2a7f;stroke:#ff2a7f;stroke-width:5.70931;stroke-linecap:round;stroke-linejoin:bevel;stroke-dasharray:none;stroke-opacity:1" />
		<path
   d="m 215.424,353.342 c 9.54,-16.803 9.342,-36.631 0.257,-51.134 -2.148,-5.22 -20.242,-51.577 -4.052,-97.913 3.608,-7.006 65.182,-194.301 65.182,-194.301 l -0.748,-9.23 -82.265,162.668 8.081,24.633 -62.046,119.34 c -0.467,0.76 -0.969,1.494 -1.407,2.254 -11.204,19.746 -9.044,43.684 5.261,58.21 v 0 c 2.592,2.64 5.547,4.905 8.764,6.726 10.439,5.933 22.8,6.879 34.833,2.687 11.705,-4.065 21.695,-12.566 28.14,-23.94 z M 204.763,171.214 c -2.931,-2.978 -2.884,-7.748 0.082,-10.69 2.978,-2.925 7.765,-2.89 10.696,0.087 2.931,2.978 2.896,7.76 -0.082,10.69 -2.977,2.926 -7.765,2.891 -10.696,-0.087 z m -22.18,192.544 c -8.069,2.803 -16.249,2.242 -23.045,-1.611 -2.055,-1.18 -3.953,-2.639 -5.616,-4.32 -9.833,-9.996 -11.076,-26.881 -3.013,-41.092 4.734,-8.326 11.957,-14.538 20.376,-17.469 8.058,-2.814 16.237,-2.254 23.027,1.623 2.067,1.18 3.971,2.615 5.634,4.309 9.827,9.984 11.076,26.881 3.013,41.092 -4.747,8.325 -11.981,14.525 -20.376,17.468 z"
   id="path14121"
   style="fill:#ff2a7f;stroke:#ff2a7f;stroke-width:5.70931;stroke-linecap:round;stroke-linejoin:bevel;stroke-dasharray:none;stroke-opacity:1" />
	</g>
</g><g
     id="g14115"
     transform="translate(-0.59782675,-1347.4708)"
     style="fill:#ff80b2;stroke:#ff80b2;stroke-width:1.42733;stroke-linecap:round;stroke-linejoin:bevel;stroke-dasharray:none;stroke-opacity:1;filter:url(#filter15926)">
	<g
   id="g14113"
   style="fill:#ff80b2;stroke:#ff80b2;stroke-width:1.42733;stroke-linecap:round;stroke-linejoin:bevel;stroke-dasharray:none;stroke-opacity:1">
		<path
   d="m 380.621,106.955 -9.716,-0.607 c 0,0 -77.068,24.417 -134.193,42.832 -4.285,12.792 -8.186,24.347 -11.303,33.432 z"
   id="path14107"
   style="fill:#ff80b2;stroke:#ff80b2;stroke-width:1.42733;stroke-linecap:round;stroke-linejoin:bevel;stroke-dasharray:none;stroke-opacity:1" />
		<path
   d="m 176.604,169.089 c -47.83,15.245 -95.35,-5.838 -98.742,-7.392 -14.159,-8.863 -33.519,-9.365 -50.142,-0.525 -11.537,6.119 -20.3,15.869 -24.714,27.43 -4.531,11.899 -3.924,24.3 1.71,34.891 1.816,3.422 4.11,6.551 6.825,9.318 14.147,14.363 37.88,17.049 57.697,6.516 0.07,-0.034 0.14,-0.093 0.228,-0.14 -0.099,0.187 -0.146,0.28 -0.146,0.28 l 123.246,-60.207 0.07,0.029 -4.671,-14.217 c -6.34,2.125 -10.427,3.562 -11.361,4.017 z m -114.085,57.58 c -14.252,7.59 -31.032,5.979 -40.765,-3.924 -1.733,-1.763 -3.217,-3.771 -4.373,-5.979 -3.672,-6.89 -4.005,-15.087 -0.969,-23.074 3.17,-8.32 9.563,-15.373 18.029,-19.869 14.27,-7.573 31.021,-5.967 40.753,3.917 1.746,1.775 3.217,3.784 4.385,5.979 3.661,6.901 4.011,15.086 0.981,23.074 -3.165,8.315 -9.576,15.369 -18.041,19.876 z"
   id="path14109"
   style="fill:#ff80b2;stroke:#ff80b2;stroke-width:1.42733;stroke-linecap:round;stroke-linejoin:bevel;stroke-dasharray:none;stroke-opacity:1" />
		<path
   d="m 215.424,353.342 c 9.54,-16.803 9.342,-36.631 0.257,-51.134 -2.148,-5.22 -20.242,-51.577 -4.052,-97.913 3.608,-7.006 65.182,-194.301 65.182,-194.301 l -0.748,-9.23 -82.265,162.668 8.081,24.633 -62.046,119.34 c -0.467,0.76 -0.969,1.494 -1.407,2.254 -11.204,19.746 -9.044,43.684 5.261,58.21 v 0 c 2.592,2.64 5.547,4.905 8.764,6.726 10.439,5.933 22.8,6.879 34.833,2.687 11.705,-4.065 21.695,-12.566 28.14,-23.94 z M 204.763,171.214 c -2.931,-2.978 -2.884,-7.748 0.082,-10.69 2.978,-2.925 7.765,-2.89 10.696,0.087 2.931,2.978 2.896,7.76 -0.082,10.69 -2.977,2.926 -7.765,2.891 -10.696,-0.087 z m -22.18,192.544 c -8.069,2.803 -16.249,2.242 -23.045,-1.611 -2.055,-1.18 -3.953,-2.639 -5.616,-4.32 -9.833,-9.996 -11.076,-26.881 -3.013,-41.092 4.734,-8.326 11.957,-14.538 20.376,-17.469 8.058,-2.814 16.237,-2.254 23.027,1.623 2.067,1.18 3.971,2.615 5.634,4.309 9.827,9.984 11.076,26.881 3.013,41.092 -4.747,8.325 -11.981,14.525 -20.376,17.468 z"
   id="path14111"
   style="fill:#ff80b2;stroke:#ff80b2;stroke-width:1.42733;stroke-linecap:round;stroke-linejoin:bevel;stroke-dasharray:none;stroke-opacity:1" />
	</g>
</g><g
     id="g14105"
     transform="translate(-0.79710301,-1347.2762)"
     style="fill:#ffffff">
	<g
   id="g14103"
   style="fill:#ffffff">
		<path
   d="m 380.621,106.955 -9.716,-0.607 c 0,0 -77.068,24.417 -134.193,42.832 -4.285,12.792 -8.186,24.347 -11.303,33.432 z"
   id="path14097"
   style="fill:#ffffff" />
		<path
   d="m 176.604,169.089 c -47.83,15.245 -95.35,-5.838 -98.742,-7.392 -14.159,-8.863 -33.519,-9.365 -50.142,-0.525 -11.537,6.119 -20.3,15.869 -24.714,27.43 -4.531,11.899 -3.924,24.3 1.71,34.891 1.816,3.422 4.11,6.551 6.825,9.318 14.147,14.363 37.88,17.049 57.697,6.516 0.07,-0.034 0.14,-0.093 0.228,-0.14 -0.099,0.187 -0.146,0.28 -0.146,0.28 l 123.246,-60.207 0.07,0.029 -4.671,-14.217 c -6.34,2.125 -10.427,3.562 -11.361,4.017 z m -114.085,57.58 c -14.252,7.59 -31.032,5.979 -40.765,-3.924 -1.733,-1.763 -3.217,-3.771 -4.373,-5.979 -3.672,-6.89 -4.005,-15.087 -0.969,-23.074 3.17,-8.32 9.563,-15.373 18.029,-19.869 14.27,-7.573 31.021,-5.967 40.753,3.917 1.746,1.775 3.217,3.784 4.385,5.979 3.661,6.901 4.011,15.086 0.981,23.074 -3.165,8.315 -9.576,15.369 -18.041,19.876 z"
   id="path14099"
   style="fill:#ffffff" />
		<path
   d="m 215.424,353.342 c 9.54,-16.803 9.342,-36.631 0.257,-51.134 -2.148,-5.22 -20.242,-51.577 -4.052,-97.913 3.608,-7.006 65.182,-194.301 65.182,-194.301 l -0.748,-9.23 -82.265,162.668 8.081,24.633 -62.046,119.34 c -0.467,0.76 -0.969,1.494 -1.407,2.254 -11.204,19.746 -9.044,43.684 5.261,58.21 v 0 c 2.592,2.64 5.547,4.905 8.764,6.726 10.439,5.933 22.8,6.879 34.833,2.687 11.705,-4.065 21.695,-12.566 28.14,-23.94 z M 204.763,171.214 c -2.931,-2.978 -2.884,-7.748 0.082,-10.69 2.978,-2.925 7.765,-2.89 10.696,0.087 2.931,2.978 2.896,7.76 -0.082,10.69 -2.977,2.926 -7.765,2.891 -10.696,-0.087 z m -22.18,192.544 c -8.069,2.803 -16.249,2.242 -23.045,-1.611 -2.055,-1.18 -3.953,-2.639 -5.616,-4.32 -9.833,-9.996 -11.076,-26.881 -3.013,-41.092 4.734,-8.326 11.957,-14.538 20.376,-17.469 8.058,-2.814 16.237,-2.254 23.027,1.623 2.067,1.18 3.971,2.615 5.634,4.309 9.827,9.984 11.076,26.881 3.013,41.092 -4.747,8.325 -11.981,14.525 -20.376,17.468 z"
   id="path14101"
   style="fill:#ffffff" />
	</g>
</g></g></svg>
